<?xml version="1.0" encoding="UTF-8" standalone="no"?>
<svg
   xmlns:dc="http://purl.org/dc/elements/1.1/"
   xmlns:cc="http://creativecommons.org/ns#"
   xmlns:rdf="http://www.w3.org/1999/02/22-rdf-syntax-ns#"
   xmlns:svg="http://www.w3.org/2000/svg"
   xmlns="http://www.w3.org/2000/svg"
   xmlns:sodipodi="http://sodipodi.sourceforge.net/DTD/sodipodi-0.dtd"
   xmlns:inkscape="http://www.inkscape.org/namespaces/inkscape"
   width="283"
   height="64"
   viewBox="0 0 283 64"
   fill="none"
   version="1.1"
   id="svg4"
   sodipodi:docname="vercel.svg"
   inkscape:version="1.0.2-2 (e86c870879, 2021-01-15)">
  <metadata
     id="metadata10">
    <rdf:RDF>
      <cc:Work
         rdf:about="">
        <dc:format>image/svg+xml</dc:format>
        <dc:type
           rdf:resource="http://purl.org/dc/dcmitype/StillImage" />
      </cc:Work>
    </rdf:RDF>
  </metadata>
  <defs
     id="defs8" />
  <sodipodi:namedview
     pagecolor="#ffffff"
     bordercolor="#666666"
     borderopacity="1"
     objecttolerance="10"
     gridtolerance="10"
     guidetolerance="10"
     inkscape:pageopacity="0"
     inkscape:pageshadow="2"
     inkscape:window-width="1366"
     inkscape:window-height="715"
     id="namedview6"
     showgrid="false"
     inkscape:zoom="3.5936396"
     inkscape:cx="141.5"
     inkscape:cy="32"
     inkscape:window-x="-8"
     inkscape:window-y="-8"
     inkscape:window-maximized="1"
     inkscape:current-layer="svg4" />
  <text
     xml:space="preserve"
     style="font-style:normal;font-weight:normal;font-size:43.6047px;line-height:1.25;font-family:sans-serif;fill:#000000;fill-opacity:1;stroke:none;stroke-width:1.09012"
     x="16.969578"
     y="57.760448"
     id="text14"
     transform="matrix(1.0875407,-0.07489838,0.06302697,0.91516521,0,0)"><tspan
       sodipodi:role="line"
       id="tspan12"
       x="16.969578"
       y="57.760448"
       style="stroke-width:1.09012">buenapaga</tspan></text>
  <path
     style="fill:none;stroke:#000000;stroke-width:1px;stroke-linecap:butt;stroke-linejoin:miter;stroke-opacity:1"
     d="m 16.974435,17.809243 c 40.627335,2.782694 50.645034,1.947886 57.60177,-3.060964 6.956735,-5.0088493 36.175025,-3.895772 36.175025,-3.895772 0,0 9.46116,7.513275 24.20944,4.730581 14.74828,-2.782695 37.56637,-8.3480831 37.56637,-8.3480831 l 27.2704,1.3913471 c 0,0 25.87906,2.226155 27.27041,1.391347 1.39134,-0.8348081 35.89675,-3.0609635 35.89675,-3.0609635 l 14.47001,0.2782694 4.73058,11.4090461 -1.11308,24.487709 -12.24385,15.026549 -61.21927,3.617502 H 102.40315 L 26.713864,60.662734 7.2350049,56.488692 9.7394297,26.157325 Z"
     id="path16" />
</svg>
